<svg xmlns="http://www.w3.org/2000/svg" width="39.418" height="41.337" viewBox="0 0 39.418 41.337">
  <path id="Icon_material-account-box" data-name="Icon material-account-box" d="M4.5,9.093V41.244a4.489,4.489,0,0,0,4.38,4.593H39.538a4.5,4.5,0,0,0,4.38-4.593V9.093A4.5,4.5,0,0,0,39.538,4.5H8.88A4.489,4.489,0,0,0,4.5,9.093Zm26.279,9.186a6.726,6.726,0,0,1-6.57,6.89,6.726,6.726,0,0,1-6.57-6.89,6.726,6.726,0,0,1,6.57-6.89A6.726,6.726,0,0,1,30.779,18.279ZM11.07,36.651c0-4.593,8.76-7.119,13.139-7.119s13.139,2.526,13.139,7.119v2.3H11.07Z" transform="translate(-4.5 -4.5)" fill="#fff"/>
</svg>
